<mxfile host="Electron" agent="Mozilla/5.0 (Windows NT 10.0; Win64; x64) AppleWebKit/537.36 (KHTML, like Gecko) draw.io/26.0.16 Chrome/132.0.6834.196 Electron/34.2.0 Safari/537.36" version="26.0.16">
  <diagram id="tjmWz-L2Z0vWePFaMeoU" name="Page-1">
    <mxGraphModel dx="1434" dy="844" grid="1" gridSize="10" guides="1" tooltips="1" connect="1" arrows="1" fold="1" page="1" pageScale="1" pageWidth="850" pageHeight="1100" math="0" shadow="0">
      <root>
        <mxCell id="0" />
        <mxCell id="1" parent="0" />
        <mxCell id="GCxnZ_K5_v9I7kZ8iRKZ-68" value="" style="rounded=0;whiteSpace=wrap;html=1;fillColor=#FFECCC;strokeColor=#d79b00;movable=0;resizable=0;rotatable=0;deletable=0;editable=0;locked=1;connectable=0;" vertex="1" parent="1">
          <mxGeometry x="1700" y="180" width="1365" height="550" as="geometry" />
        </mxCell>
        <mxCell id="GCxnZ_K5_v9I7kZ8iRKZ-62" value="" style="rounded=0;whiteSpace=wrap;html=1;fillColor=#dae8fc;strokeColor=#6c8ebf;" vertex="1" parent="1">
          <mxGeometry x="125" y="390" width="600" height="530" as="geometry" />
        </mxCell>
        <mxCell id="GCxnZ_K5_v9I7kZ8iRKZ-32" value="" style="rounded=0;whiteSpace=wrap;html=1;fillColor=#d5e8d4;strokeColor=#82b366;" vertex="1" parent="1">
          <mxGeometry x="305" y="150" width="220" height="210" as="geometry" />
        </mxCell>
        <mxCell id="GCxnZ_K5_v9I7kZ8iRKZ-2" value="CRUMBSMessage" style="html=1;rounded=0;shadow=0;comic=0;labelBackgroundColor=none;strokeWidth=2;fontFamily=Verdana;fontSize=12;align=center;shape=mxgraph.ios7ui.horLines;fillColor=#d5e8d4;strokeColor=#82b366;" vertex="1" parent="1">
          <mxGeometry x="1787.5" y="394" width="135" height="50" as="geometry" />
        </mxCell>
        <mxCell id="GCxnZ_K5_v9I7kZ8iRKZ-3" value="Function" style="swimlane;html=1;fontStyle=0;childLayout=stackLayout;horizontal=1;startSize=26;fillColor=#dae8fc;horizontalStack=0;resizeParent=1;resizeLast=0;collapsible=1;marginBottom=0;swimlaneFillColor=#ffffff;align=center;rounded=1;shadow=0;comic=0;labelBackgroundColor=none;strokeWidth=1;fontFamily=Verdana;fontSize=12;strokeColor=#6c8ebf;" vertex="1" parent="1">
          <mxGeometry x="1775" y="220" width="160" height="110" as="geometry" />
        </mxCell>
        <mxCell id="GCxnZ_K5_v9I7kZ8iRKZ-4" value="Row 1" style="text;html=1;strokeColor=none;fillColor=none;spacingLeft=4;spacingRight=4;whiteSpace=wrap;overflow=hidden;rotatable=0;points=[[0,0.5],[1,0.5]];portConstraint=eastwest;" vertex="1" parent="GCxnZ_K5_v9I7kZ8iRKZ-3">
          <mxGeometry y="26" width="160" height="26" as="geometry" />
        </mxCell>
        <mxCell id="GCxnZ_K5_v9I7kZ8iRKZ-5" value="Row 2" style="text;html=1;strokeColor=none;fillColor=none;spacingLeft=4;spacingRight=4;whiteSpace=wrap;overflow=hidden;rotatable=0;points=[[0,0.5],[1,0.5]];portConstraint=eastwest;" vertex="1" parent="GCxnZ_K5_v9I7kZ8iRKZ-3">
          <mxGeometry y="52" width="160" height="26" as="geometry" />
        </mxCell>
        <mxCell id="GCxnZ_K5_v9I7kZ8iRKZ-6" value="Row 3" style="text;html=1;strokeColor=none;fillColor=none;spacingLeft=4;spacingRight=4;whiteSpace=wrap;overflow=hidden;rotatable=0;points=[[0,0.5],[1,0.5]];portConstraint=eastwest;" vertex="1" parent="GCxnZ_K5_v9I7kZ8iRKZ-3">
          <mxGeometry y="78" width="160" height="26" as="geometry" />
        </mxCell>
        <mxCell id="GCxnZ_K5_v9I7kZ8iRKZ-7" value="Function" style="swimlane;html=1;fontStyle=0;childLayout=stackLayout;horizontal=1;startSize=26;fillColor=#dae8fc;horizontalStack=0;resizeParent=1;resizeLast=0;collapsible=1;marginBottom=0;swimlaneFillColor=#ffffff;align=center;rounded=1;shadow=0;comic=0;labelBackgroundColor=none;strokeWidth=1;fontFamily=Verdana;fontSize=12;strokeColor=#6c8ebf;" vertex="1" parent="1">
          <mxGeometry x="1775" y="524" width="160" height="140" as="geometry" />
        </mxCell>
        <mxCell id="GCxnZ_K5_v9I7kZ8iRKZ-8" value="Row 1" style="text;html=1;strokeColor=none;fillColor=none;spacingLeft=4;spacingRight=4;whiteSpace=wrap;overflow=hidden;rotatable=0;points=[[0,0.5],[1,0.5]];portConstraint=eastwest;" vertex="1" parent="GCxnZ_K5_v9I7kZ8iRKZ-7">
          <mxGeometry y="26" width="160" height="26" as="geometry" />
        </mxCell>
        <mxCell id="GCxnZ_K5_v9I7kZ8iRKZ-9" value="Row 2" style="text;html=1;strokeColor=none;fillColor=none;spacingLeft=4;spacingRight=4;whiteSpace=wrap;overflow=hidden;rotatable=0;points=[[0,0.5],[1,0.5]];portConstraint=eastwest;" vertex="1" parent="GCxnZ_K5_v9I7kZ8iRKZ-7">
          <mxGeometry y="52" width="160" height="26" as="geometry" />
        </mxCell>
        <mxCell id="GCxnZ_K5_v9I7kZ8iRKZ-10" value="Row 3" style="text;html=1;strokeColor=none;fillColor=none;spacingLeft=4;spacingRight=4;whiteSpace=wrap;overflow=hidden;rotatable=0;points=[[0,0.5],[1,0.5]];portConstraint=eastwest;" vertex="1" parent="GCxnZ_K5_v9I7kZ8iRKZ-7">
          <mxGeometry y="78" width="160" height="26" as="geometry" />
        </mxCell>
        <mxCell id="GCxnZ_K5_v9I7kZ8iRKZ-11" value="Row 4" style="text;html=1;strokeColor=none;fillColor=none;spacingLeft=4;spacingRight=4;whiteSpace=wrap;overflow=hidden;rotatable=0;points=[[0,0.5],[1,0.5]];portConstraint=eastwest;" vertex="1" parent="GCxnZ_K5_v9I7kZ8iRKZ-7">
          <mxGeometry y="104" width="160" height="26" as="geometry" />
        </mxCell>
        <mxCell id="GCxnZ_K5_v9I7kZ8iRKZ-12" value="Function" style="swimlane;html=1;fontStyle=0;childLayout=stackLayout;horizontal=1;startSize=26;fillColor=#dae8fc;horizontalStack=0;resizeParent=1;resizeLast=0;collapsible=1;marginBottom=0;swimlaneFillColor=#ffffff;align=center;rounded=1;shadow=0;comic=0;labelBackgroundColor=none;strokeWidth=1;fontFamily=Verdana;fontSize=12;strokeColor=#6c8ebf;" vertex="1" parent="1">
          <mxGeometry x="2175" y="220" width="160" height="84" as="geometry" />
        </mxCell>
        <mxCell id="GCxnZ_K5_v9I7kZ8iRKZ-13" value="Row 1" style="text;html=1;strokeColor=none;fillColor=none;spacingLeft=4;spacingRight=4;whiteSpace=wrap;overflow=hidden;rotatable=0;points=[[0,0.5],[1,0.5]];portConstraint=eastwest;" vertex="1" parent="GCxnZ_K5_v9I7kZ8iRKZ-12">
          <mxGeometry y="26" width="160" height="26" as="geometry" />
        </mxCell>
        <mxCell id="GCxnZ_K5_v9I7kZ8iRKZ-14" value="Row 2" style="text;html=1;strokeColor=none;fillColor=none;spacingLeft=4;spacingRight=4;whiteSpace=wrap;overflow=hidden;rotatable=0;points=[[0,0.5],[1,0.5]];portConstraint=eastwest;" vertex="1" parent="GCxnZ_K5_v9I7kZ8iRKZ-12">
          <mxGeometry y="52" width="160" height="26" as="geometry" />
        </mxCell>
        <mxCell id="GCxnZ_K5_v9I7kZ8iRKZ-15" value="Function" style="swimlane;html=1;fontStyle=0;childLayout=stackLayout;horizontal=1;startSize=26;fillColor=#dae8fc;horizontalStack=0;resizeParent=1;resizeLast=0;collapsible=1;marginBottom=0;swimlaneFillColor=#ffffff;align=center;rounded=1;shadow=0;comic=0;labelBackgroundColor=none;strokeWidth=1;fontFamily=Verdana;fontSize=12;strokeColor=#6c8ebf;" vertex="1" parent="1">
          <mxGeometry x="2175" y="524" width="160" height="110" as="geometry" />
        </mxCell>
        <mxCell id="GCxnZ_K5_v9I7kZ8iRKZ-16" value="Row 1" style="text;html=1;strokeColor=none;fillColor=none;spacingLeft=4;spacingRight=4;whiteSpace=wrap;overflow=hidden;rotatable=0;points=[[0,0.5],[1,0.5]];portConstraint=eastwest;" vertex="1" parent="GCxnZ_K5_v9I7kZ8iRKZ-15">
          <mxGeometry y="26" width="160" height="26" as="geometry" />
        </mxCell>
        <mxCell id="GCxnZ_K5_v9I7kZ8iRKZ-17" value="Row 2" style="text;html=1;strokeColor=none;fillColor=none;spacingLeft=4;spacingRight=4;whiteSpace=wrap;overflow=hidden;rotatable=0;points=[[0,0.5],[1,0.5]];portConstraint=eastwest;" vertex="1" parent="GCxnZ_K5_v9I7kZ8iRKZ-15">
          <mxGeometry y="52" width="160" height="26" as="geometry" />
        </mxCell>
        <mxCell id="GCxnZ_K5_v9I7kZ8iRKZ-18" value="Row 3" style="text;html=1;strokeColor=none;fillColor=none;spacingLeft=4;spacingRight=4;whiteSpace=wrap;overflow=hidden;rotatable=0;points=[[0,0.5],[1,0.5]];portConstraint=eastwest;" vertex="1" parent="GCxnZ_K5_v9I7kZ8iRKZ-15">
          <mxGeometry y="78" width="160" height="26" as="geometry" />
        </mxCell>
        <mxCell id="GCxnZ_K5_v9I7kZ8iRKZ-19" value="CRUMBSMessage" style="html=1;rounded=0;shadow=0;comic=0;labelBackgroundColor=none;strokeWidth=2;fontFamily=Verdana;fontSize=12;align=center;shape=mxgraph.ios7ui.horLines;fillColor=#d5e8d4;strokeColor=#82b366;" vertex="1" parent="1">
          <mxGeometry x="1995" y="394" width="135" height="50" as="geometry" />
        </mxCell>
        <mxCell id="GCxnZ_K5_v9I7kZ8iRKZ-20" style="edgeStyle=none;html=1;labelBackgroundColor=none;startFill=0;startSize=8;endFill=1;endSize=8;fontFamily=Verdana;fontSize=12;" edge="1" parent="1" source="GCxnZ_K5_v9I7kZ8iRKZ-7" target="GCxnZ_K5_v9I7kZ8iRKZ-2">
          <mxGeometry relative="1" as="geometry" />
        </mxCell>
        <mxCell id="GCxnZ_K5_v9I7kZ8iRKZ-21" style="edgeStyle=none;html=1;labelBackgroundColor=none;startFill=0;startSize=8;endFill=1;endSize=8;fontFamily=Verdana;fontSize=12;" edge="1" parent="1" source="GCxnZ_K5_v9I7kZ8iRKZ-2" target="GCxnZ_K5_v9I7kZ8iRKZ-3">
          <mxGeometry relative="1" as="geometry" />
        </mxCell>
        <mxCell id="GCxnZ_K5_v9I7kZ8iRKZ-22" style="edgeStyle=orthogonalEdgeStyle;html=1;labelBackgroundColor=none;startFill=0;startSize=8;endFill=1;endSize=8;fontFamily=Verdana;fontSize=12;exitX=1;exitY=0.25;entryX=1;entryY=0.5;" edge="1" parent="1" source="GCxnZ_K5_v9I7kZ8iRKZ-7" target="GCxnZ_K5_v9I7kZ8iRKZ-6">
          <mxGeometry relative="1" as="geometry">
            <Array as="points">
              <mxPoint x="1965" y="559" />
              <mxPoint x="1965" y="311" />
            </Array>
          </mxGeometry>
        </mxCell>
        <mxCell id="GCxnZ_K5_v9I7kZ8iRKZ-23" value="" style="edgeStyle=orthogonalEdgeStyle;html=1;labelBackgroundColor=none;startFill=0;startSize=8;endFill=1;endSize=8;fontFamily=Verdana;fontSize=12;" edge="1" parent="1" source="GCxnZ_K5_v9I7kZ8iRKZ-19" target="GCxnZ_K5_v9I7kZ8iRKZ-16">
          <mxGeometry x="-0.1342" y="32" relative="1" as="geometry">
            <mxPoint as="offset" />
          </mxGeometry>
        </mxCell>
        <mxCell id="GCxnZ_K5_v9I7kZ8iRKZ-24" style="edgeStyle=orthogonalEdgeStyle;html=1;labelBackgroundColor=none;startFill=0;startSize=8;endFill=1;endSize=8;fontFamily=Verdana;fontSize=12;" edge="1" parent="1" source="GCxnZ_K5_v9I7kZ8iRKZ-3" target="GCxnZ_K5_v9I7kZ8iRKZ-19">
          <mxGeometry relative="1" as="geometry">
            <Array as="points">
              <mxPoint x="2063" y="294" />
            </Array>
          </mxGeometry>
        </mxCell>
        <mxCell id="GCxnZ_K5_v9I7kZ8iRKZ-25" style="edgeStyle=orthogonalEdgeStyle;html=1;labelBackgroundColor=none;startFill=0;startSize=8;endFill=1;endSize=8;fontFamily=Verdana;fontSize=12;" edge="1" parent="1" source="GCxnZ_K5_v9I7kZ8iRKZ-15" target="GCxnZ_K5_v9I7kZ8iRKZ-12">
          <mxGeometry relative="1" as="geometry" />
        </mxCell>
        <mxCell id="GCxnZ_K5_v9I7kZ8iRKZ-26" style="edgeStyle=orthogonalEdgeStyle;html=1;exitX=1;exitY=0.5;entryX=0;entryY=0.5;labelBackgroundColor=none;startFill=0;startSize=8;endFill=1;endSize=8;fontFamily=Verdana;fontSize=12;" edge="1" parent="1" source="GCxnZ_K5_v9I7kZ8iRKZ-5" target="GCxnZ_K5_v9I7kZ8iRKZ-14">
          <mxGeometry relative="1" as="geometry">
            <Array as="points" />
          </mxGeometry>
        </mxCell>
        <mxCell id="GCxnZ_K5_v9I7kZ8iRKZ-27" value="CRUMBSMessage struct" style="swimlane;html=1;fontStyle=0;childLayout=stackLayout;horizontal=1;startSize=26;fillColor=#e0e0e0;horizontalStack=0;resizeParent=1;resizeLast=0;collapsible=1;marginBottom=0;swimlaneFillColor=#ffffff;align=center;rounded=1;shadow=0;comic=0;labelBackgroundColor=none;strokeWidth=1;fontFamily=Verdana;fontSize=12" vertex="1" parent="1">
          <mxGeometry x="335" y="190" width="160" height="160" as="geometry" />
        </mxCell>
        <mxCell id="GCxnZ_K5_v9I7kZ8iRKZ-28" value="uint8_t sliceAddress" style="text;html=1;strokeColor=none;fillColor=none;spacingLeft=4;spacingRight=4;whiteSpace=wrap;overflow=hidden;rotatable=0;points=[[0,0.5],[1,0.5]];portConstraint=eastwest;" vertex="1" parent="GCxnZ_K5_v9I7kZ8iRKZ-27">
          <mxGeometry y="26" width="160" height="26" as="geometry" />
        </mxCell>
        <mxCell id="GCxnZ_K5_v9I7kZ8iRKZ-29" value="uint8_t&amp;nbsp;typeID" style="text;html=1;strokeColor=none;fillColor=none;spacingLeft=4;spacingRight=4;whiteSpace=wrap;overflow=hidden;rotatable=0;points=[[0,0.5],[1,0.5]];portConstraint=eastwest;" vertex="1" parent="GCxnZ_K5_v9I7kZ8iRKZ-27">
          <mxGeometry y="52" width="160" height="26" as="geometry" />
        </mxCell>
        <mxCell id="GCxnZ_K5_v9I7kZ8iRKZ-30" value="uint8_t&amp;nbsp;commandType" style="text;html=1;strokeColor=none;fillColor=none;spacingLeft=4;spacingRight=4;whiteSpace=wrap;overflow=hidden;rotatable=0;points=[[0,0.5],[1,0.5]];portConstraint=eastwest;" vertex="1" parent="GCxnZ_K5_v9I7kZ8iRKZ-27">
          <mxGeometry y="78" width="160" height="22" as="geometry" />
        </mxCell>
        <mxCell id="GCxnZ_K5_v9I7kZ8iRKZ-33" value="float data[6]" style="text;html=1;strokeColor=none;fillColor=none;spacingLeft=4;spacingRight=4;whiteSpace=wrap;overflow=hidden;rotatable=0;points=[[0,0.5],[1,0.5]];portConstraint=eastwest;" vertex="1" parent="GCxnZ_K5_v9I7kZ8iRKZ-27">
          <mxGeometry y="100" width="160" height="22" as="geometry" />
        </mxCell>
        <mxCell id="GCxnZ_K5_v9I7kZ8iRKZ-34" value="uint8_t&amp;nbsp;errorFlags" style="text;html=1;strokeColor=none;fillColor=none;spacingLeft=4;spacingRight=4;whiteSpace=wrap;overflow=hidden;rotatable=0;points=[[0,0.5],[1,0.5]];portConstraint=eastwest;" vertex="1" parent="GCxnZ_K5_v9I7kZ8iRKZ-27">
          <mxGeometry y="122" width="160" height="22" as="geometry" />
        </mxCell>
        <mxCell id="GCxnZ_K5_v9I7kZ8iRKZ-36" value="&lt;span style=&quot;color: rgb(0, 0, 0); font-family: Verdana; font-style: normal; font-variant-ligatures: normal; font-variant-caps: normal; letter-spacing: normal; orphans: 2; text-indent: 0px; text-transform: none; widows: 2; word-spacing: 0px; -webkit-text-stroke-width: 0px; white-space: nowrap; text-decoration-thickness: initial; text-decoration-style: initial; text-decoration-color: initial; float: none; display: inline !important;&quot;&gt;CRUMBSMessage.h&lt;/span&gt;" style="text;whiteSpace=wrap;html=1;align=center;fontSize=15;fontStyle=1;labelBackgroundColor=none;" vertex="1" parent="1">
          <mxGeometry x="345" y="150" width="140" height="40" as="geometry" />
        </mxCell>
        <mxCell id="GCxnZ_K5_v9I7kZ8iRKZ-37" value="&lt;font style=&quot;font-size: 16px;&quot;&gt;CRUMBS&lt;/font&gt;" style="swimlane;html=1;fontStyle=1;align=center;verticalAlign=top;childLayout=stackLayout;horizontal=1;startSize=26;horizontalStack=0;resizeParent=1;resizeLast=0;collapsible=1;marginBottom=0;swimlaneFillColor=#ffffff;rounded=0;shadow=0;comic=0;labelBackgroundColor=none;strokeWidth=1;fillColor=none;fontFamily=Verdana;fontSize=12" vertex="1" parent="1">
          <mxGeometry x="150" y="424" width="550" height="466" as="geometry" />
        </mxCell>
        <mxCell id="GCxnZ_K5_v9I7kZ8iRKZ-39" value="- i2cAddress: uint8_t" style="text;html=1;strokeColor=none;fillColor=none;align=left;verticalAlign=top;spacingLeft=4;spacingRight=4;whiteSpace=wrap;overflow=hidden;rotatable=0;points=[[0,0.5],[1,0.5]];portConstraint=eastwest;" vertex="1" parent="GCxnZ_K5_v9I7kZ8iRKZ-37">
          <mxGeometry y="26" width="550" height="26" as="geometry" />
        </mxCell>
        <mxCell id="GCxnZ_K5_v9I7kZ8iRKZ-40" value="- masterMode: bool" style="text;html=1;strokeColor=none;fillColor=none;align=left;verticalAlign=top;spacingLeft=4;spacingRight=4;whiteSpace=wrap;overflow=hidden;rotatable=0;points=[[0,0.5],[1,0.5]];portConstraint=eastwest;" vertex="1" parent="GCxnZ_K5_v9I7kZ8iRKZ-37">
          <mxGeometry y="52" width="550" height="26" as="geometry" />
        </mxCell>
        <mxCell id="GCxnZ_K5_v9I7kZ8iRKZ-41" value="- receiveCallback: void (*)(CRUMBSMessage &amp;amp;)" style="text;html=1;strokeColor=none;fillColor=none;align=left;verticalAlign=top;spacingLeft=4;spacingRight=4;whiteSpace=wrap;overflow=hidden;rotatable=0;points=[[0,0.5],[1,0.5]];portConstraint=eastwest;" vertex="1" parent="GCxnZ_K5_v9I7kZ8iRKZ-37">
          <mxGeometry y="78" width="550" height="26" as="geometry" />
        </mxCell>
        <mxCell id="GCxnZ_K5_v9I7kZ8iRKZ-42" value="- requestCallback: void (*)()" style="text;html=1;strokeColor=none;fillColor=none;align=left;verticalAlign=top;spacingLeft=4;spacingRight=4;whiteSpace=wrap;overflow=hidden;rotatable=0;points=[[0,0.5],[1,0.5]];portConstraint=eastwest;" vertex="1" parent="GCxnZ_K5_v9I7kZ8iRKZ-37">
          <mxGeometry y="104" width="550" height="26" as="geometry" />
        </mxCell>
        <mxCell id="GCxnZ_K5_v9I7kZ8iRKZ-43" value="" style="line;html=1;strokeWidth=1;fillColor=none;align=left;verticalAlign=middle;spacingTop=-1;spacingLeft=3;spacingRight=3;rotatable=0;labelPosition=right;points=[];portConstraint=eastwest;" vertex="1" parent="GCxnZ_K5_v9I7kZ8iRKZ-37">
          <mxGeometry y="130" width="550" height="8" as="geometry" />
        </mxCell>
        <mxCell id="GCxnZ_K5_v9I7kZ8iRKZ-45" value="_ instance: CRUMBS*" style="text;html=1;strokeColor=none;fillColor=none;align=left;verticalAlign=top;spacingLeft=4;spacingRight=4;whiteSpace=wrap;overflow=hidden;rotatable=0;points=[[0,0.5],[1,0.5]];portConstraint=eastwest;" vertex="1" parent="GCxnZ_K5_v9I7kZ8iRKZ-37">
          <mxGeometry y="138" width="550" height="26" as="geometry" />
        </mxCell>
        <mxCell id="GCxnZ_K5_v9I7kZ8iRKZ-59" value="" style="line;html=1;strokeWidth=1;fillColor=none;align=left;verticalAlign=middle;spacingTop=-1;spacingLeft=3;spacingRight=3;rotatable=0;labelPosition=right;points=[];portConstraint=eastwest;" vertex="1" parent="GCxnZ_K5_v9I7kZ8iRKZ-37">
          <mxGeometry y="164" width="550" height="8" as="geometry" />
        </mxCell>
        <mxCell id="GCxnZ_K5_v9I7kZ8iRKZ-60" value="+ CRUMBS(isMaster: bool = false, address: uint8_t = 0)" style="text;html=1;strokeColor=none;fillColor=none;align=left;verticalAlign=top;spacingLeft=4;spacingRight=4;whiteSpace=wrap;overflow=hidden;rotatable=0;points=[[0,0.5],[1,0.5]];portConstraint=eastwest;" vertex="1" parent="GCxnZ_K5_v9I7kZ8iRKZ-37">
          <mxGeometry y="172" width="550" height="26" as="geometry" />
        </mxCell>
        <mxCell id="GCxnZ_K5_v9I7kZ8iRKZ-46" value="+ begin(): void" style="text;html=1;strokeColor=none;fillColor=none;align=left;verticalAlign=top;spacingLeft=4;spacingRight=4;whiteSpace=wrap;overflow=hidden;rotatable=0;points=[[0,0.5],[1,0.5]];portConstraint=eastwest;" vertex="1" parent="GCxnZ_K5_v9I7kZ8iRKZ-37">
          <mxGeometry y="198" width="550" height="26" as="geometry" />
        </mxCell>
        <mxCell id="GCxnZ_K5_v9I7kZ8iRKZ-47" value="+ sendMessage(message: const CRUMBSMessage&amp;amp;, targetAddress: uint8_t): void" style="text;html=1;strokeColor=none;fillColor=none;align=left;verticalAlign=top;spacingLeft=4;spacingRight=4;whiteSpace=wrap;overflow=hidden;rotatable=0;points=[[0,0.5],[1,0.5]];portConstraint=eastwest;" vertex="1" parent="GCxnZ_K5_v9I7kZ8iRKZ-37">
          <mxGeometry y="224" width="550" height="26" as="geometry" />
        </mxCell>
        <mxCell id="GCxnZ_K5_v9I7kZ8iRKZ-48" value="+ receiveMessage(message: CRUMBSMessage&amp;amp;): void" style="text;html=1;strokeColor=none;fillColor=none;align=left;verticalAlign=top;spacingLeft=4;spacingRight=4;whiteSpace=wrap;overflow=hidden;rotatable=0;points=[[0,0.5],[1,0.5]];portConstraint=eastwest;" vertex="1" parent="GCxnZ_K5_v9I7kZ8iRKZ-37">
          <mxGeometry y="250" width="550" height="26" as="geometry" />
        </mxCell>
        <mxCell id="GCxnZ_K5_v9I7kZ8iRKZ-50" value="+ onReceive(callback: void (*)(CRUMBSMessage &amp;amp;)): void" style="text;html=1;strokeColor=none;fillColor=none;align=left;verticalAlign=top;spacingLeft=4;spacingRight=4;whiteSpace=wrap;overflow=hidden;rotatable=0;points=[[0,0.5],[1,0.5]];portConstraint=eastwest;" vertex="1" parent="GCxnZ_K5_v9I7kZ8iRKZ-37">
          <mxGeometry y="276" width="550" height="26" as="geometry" />
        </mxCell>
        <mxCell id="GCxnZ_K5_v9I7kZ8iRKZ-49" value="+ onRequest(callback: void (*)()): void" style="text;html=1;strokeColor=none;fillColor=none;align=left;verticalAlign=top;spacingLeft=4;spacingRight=4;whiteSpace=wrap;overflow=hidden;rotatable=0;points=[[0,0.5],[1,0.5]];portConstraint=eastwest;" vertex="1" parent="GCxnZ_K5_v9I7kZ8iRKZ-37">
          <mxGeometry y="302" width="550" height="26" as="geometry" />
        </mxCell>
        <mxCell id="GCxnZ_K5_v9I7kZ8iRKZ-54" value="+ getAddress(): uint8_t" style="text;html=1;strokeColor=none;fillColor=none;align=left;verticalAlign=top;spacingLeft=4;spacingRight=4;whiteSpace=wrap;overflow=hidden;rotatable=0;points=[[0,0.5],[1,0.5]];portConstraint=eastwest;" vertex="1" parent="GCxnZ_K5_v9I7kZ8iRKZ-37">
          <mxGeometry y="328" width="550" height="26" as="geometry" />
        </mxCell>
        <mxCell id="GCxnZ_K5_v9I7kZ8iRKZ-55" value="+ encodeMessage(message: const CRUMBSMessage&amp;amp;, buffer: uint8_t*, bufferSize: size_t): size_t" style="text;html=1;strokeColor=none;fillColor=none;align=left;verticalAlign=top;spacingLeft=4;spacingRight=4;whiteSpace=wrap;overflow=hidden;rotatable=0;points=[[0,0.5],[1,0.5]];portConstraint=eastwest;" vertex="1" parent="GCxnZ_K5_v9I7kZ8iRKZ-37">
          <mxGeometry y="354" width="550" height="26" as="geometry" />
        </mxCell>
        <mxCell id="GCxnZ_K5_v9I7kZ8iRKZ-56" value="+ decodeMessage(buffer: const uint8_t*, bufferSize: size_t, message: CRUMBSMessage&amp;amp;): bool" style="text;html=1;strokeColor=none;fillColor=none;align=left;verticalAlign=top;spacingLeft=4;spacingRight=4;whiteSpace=wrap;overflow=hidden;rotatable=0;points=[[0,0.5],[1,0.5]];portConstraint=eastwest;" vertex="1" parent="GCxnZ_K5_v9I7kZ8iRKZ-37">
          <mxGeometry y="380" width="550" height="26" as="geometry" />
        </mxCell>
        <mxCell id="GCxnZ_K5_v9I7kZ8iRKZ-61" value="" style="line;html=1;strokeWidth=1;fillColor=none;align=left;verticalAlign=middle;spacingTop=-1;spacingLeft=3;spacingRight=3;rotatable=0;labelPosition=right;points=[];portConstraint=eastwest;" vertex="1" parent="GCxnZ_K5_v9I7kZ8iRKZ-37">
          <mxGeometry y="406" width="550" height="8" as="geometry" />
        </mxCell>
        <mxCell id="GCxnZ_K5_v9I7kZ8iRKZ-57" value="_ receiveEvent(bytes: int): void" style="text;html=1;strokeColor=none;fillColor=none;align=left;verticalAlign=top;spacingLeft=4;spacingRight=4;whiteSpace=wrap;overflow=hidden;rotatable=0;points=[[0,0.5],[1,0.5]];portConstraint=eastwest;" vertex="1" parent="GCxnZ_K5_v9I7kZ8iRKZ-37">
          <mxGeometry y="414" width="550" height="26" as="geometry" />
        </mxCell>
        <mxCell id="GCxnZ_K5_v9I7kZ8iRKZ-58" value="_ requestEvent(): void&amp;nbsp;" style="text;html=1;strokeColor=none;fillColor=none;align=left;verticalAlign=top;spacingLeft=4;spacingRight=4;whiteSpace=wrap;overflow=hidden;rotatable=0;points=[[0,0.5],[1,0.5]];portConstraint=eastwest;" vertex="1" parent="GCxnZ_K5_v9I7kZ8iRKZ-37">
          <mxGeometry y="440" width="550" height="26" as="geometry" />
        </mxCell>
        <mxCell id="GCxnZ_K5_v9I7kZ8iRKZ-64" value="&lt;font style=&quot;font-size: 50px;&quot;&gt;&lt;b&gt;&lt;u&gt;Classes / Files&lt;/u&gt;&lt;/b&gt;&lt;/font&gt;" style="rounded=1;whiteSpace=wrap;html=1;fillColor=#f8cecc;strokeColor=#b85450;" vertex="1" parent="1">
          <mxGeometry x="55" y="20" width="740" height="90" as="geometry" />
        </mxCell>
        <mxCell id="GCxnZ_K5_v9I7kZ8iRKZ-65" value="&lt;font style=&quot;font-size: 50px;&quot;&gt;&lt;b&gt;&lt;u&gt;Data Flow&lt;/u&gt;&lt;/b&gt;&lt;/font&gt;" style="rounded=1;whiteSpace=wrap;html=1;fillColor=#f8cecc;strokeColor=#b85450;" vertex="1" parent="1">
          <mxGeometry x="1755" y="20" width="740" height="90" as="geometry" />
        </mxCell>
        <mxCell id="GCxnZ_K5_v9I7kZ8iRKZ-66" value="" style="endArrow=none;html=1;rounded=0;strokeWidth=4;movable=1;resizable=1;rotatable=1;deletable=1;editable=1;locked=0;connectable=1;" edge="1" parent="1">
          <mxGeometry width="50" height="50" relative="1" as="geometry">
            <mxPoint x="850" y="1090" as="sourcePoint" />
            <mxPoint x="850" y="10" as="targetPoint" />
          </mxGeometry>
        </mxCell>
        <mxCell id="GCxnZ_K5_v9I7kZ8iRKZ-70" value="&lt;span style=&quot;color: rgb(0, 0, 0); font-family: Verdana; font-style: normal; font-variant-ligatures: normal; font-variant-caps: normal; letter-spacing: normal; orphans: 2; text-indent: 0px; text-transform: none; widows: 2; word-spacing: 0px; -webkit-text-stroke-width: 0px; white-space: nowrap; text-decoration-thickness: initial; text-decoration-style: initial; text-decoration-color: initial; float: none; display: inline !important;&quot;&gt;CRUMBS&lt;/span&gt;" style="text;whiteSpace=wrap;html=1;align=center;fontSize=15;fontStyle=1;labelBackgroundColor=none;" vertex="1" parent="1">
          <mxGeometry x="2315" y="180" width="140" height="40" as="geometry" />
        </mxCell>
        <mxCell id="GCxnZ_K5_v9I7kZ8iRKZ-71" value="" style="rounded=0;whiteSpace=wrap;html=1;fillColor=#ffe6cc;strokeColor=#d79b00;movable=0;resizable=0;rotatable=0;deletable=0;editable=0;locked=1;connectable=0;" vertex="1" parent="1">
          <mxGeometry x="870" y="180" width="830" height="550" as="geometry" />
        </mxCell>
        <mxCell id="GCxnZ_K5_v9I7kZ8iRKZ-72" value="" style="rounded=0;whiteSpace=wrap;html=1;fillColor=#fff2cc;strokeColor=#d6b656;movable=0;resizable=0;rotatable=0;deletable=0;editable=0;locked=1;connectable=0;" vertex="1" parent="1">
          <mxGeometry x="3065" y="180" width="310" height="550" as="geometry" />
        </mxCell>
        <mxCell id="GCxnZ_K5_v9I7kZ8iRKZ-73" value="&lt;span style=&quot;color: rgb(0, 0, 0); font-family: Verdana; font-style: normal; font-variant-ligatures: normal; font-variant-caps: normal; letter-spacing: normal; orphans: 2; text-indent: 0px; text-transform: none; widows: 2; word-spacing: 0px; -webkit-text-stroke-width: 0px; white-space: nowrap; text-decoration-thickness: initial; text-decoration-style: initial; text-decoration-color: initial; float: none; display: inline !important;&quot;&gt;Leader Sketch&lt;/span&gt;" style="text;whiteSpace=wrap;html=1;align=center;fontSize=15;fontStyle=1;labelBackgroundColor=none;" vertex="1" parent="1">
          <mxGeometry x="1215" y="180" width="140" height="40" as="geometry" />
        </mxCell>
        <mxCell id="GCxnZ_K5_v9I7kZ8iRKZ-74" value="&lt;span style=&quot;color: rgb(0, 0, 0); font-family: Verdana; font-style: normal; font-variant-ligatures: normal; font-variant-caps: normal; letter-spacing: normal; orphans: 2; text-indent: 0px; text-transform: none; widows: 2; word-spacing: 0px; -webkit-text-stroke-width: 0px; white-space: nowrap; text-decoration-thickness: initial; text-decoration-style: initial; text-decoration-color: initial; float: none; display: inline !important;&quot;&gt;Follower Sketch&lt;/span&gt;" style="text;whiteSpace=wrap;html=1;align=center;fontSize=15;fontStyle=1;labelBackgroundColor=none;" vertex="1" parent="1">
          <mxGeometry x="3150" y="180" width="140" height="40" as="geometry" />
        </mxCell>
        <mxCell id="GCxnZ_K5_v9I7kZ8iRKZ-75" value="" style="endArrow=none;html=1;rounded=0;strokeWidth=4;movable=1;resizable=1;rotatable=1;deletable=1;editable=1;locked=0;connectable=1;" edge="1" parent="1">
          <mxGeometry width="50" height="50" relative="1" as="geometry">
            <mxPoint x="3400" y="1094" as="sourcePoint" />
            <mxPoint x="3400" y="14" as="targetPoint" />
          </mxGeometry>
        </mxCell>
        <mxCell id="GCxnZ_K5_v9I7kZ8iRKZ-94" value="" style="edgeStyle=orthogonalEdgeStyle;rounded=0;orthogonalLoop=1;jettySize=auto;html=1;entryX=0.5;entryY=0;entryDx=0;entryDy=0;" edge="1" parent="1" source="GCxnZ_K5_v9I7kZ8iRKZ-77" target="GCxnZ_K5_v9I7kZ8iRKZ-82">
          <mxGeometry relative="1" as="geometry" />
        </mxCell>
        <mxCell id="GCxnZ_K5_v9I7kZ8iRKZ-77" value="setup()" style="swimlane;html=1;fontStyle=0;childLayout=stackLayout;horizontal=1;startSize=26;fillColor=#dae8fc;horizontalStack=0;resizeParent=1;resizeLast=0;collapsible=1;marginBottom=0;swimlaneFillColor=#ffffff;align=center;rounded=1;shadow=0;comic=0;labelBackgroundColor=none;strokeWidth=1;fontFamily=Verdana;fontSize=12;strokeColor=#6c8ebf;" vertex="1" parent="1">
          <mxGeometry x="950" y="341" width="160" height="56" as="geometry" />
        </mxCell>
        <mxCell id="GCxnZ_K5_v9I7kZ8iRKZ-78" value="crumbsMaster.begin();" style="text;html=1;strokeColor=none;fillColor=none;spacingLeft=4;spacingRight=4;whiteSpace=wrap;overflow=hidden;rotatable=0;points=[[0,0.5],[1,0.5]];portConstraint=eastwest;" vertex="1" parent="GCxnZ_K5_v9I7kZ8iRKZ-77">
          <mxGeometry y="26" width="160" height="26" as="geometry" />
        </mxCell>
        <mxCell id="GCxnZ_K5_v9I7kZ8iRKZ-95" value="" style="edgeStyle=orthogonalEdgeStyle;rounded=0;orthogonalLoop=1;jettySize=auto;html=1;entryX=0.5;entryY=0;entryDx=0;entryDy=0;" edge="1" parent="1" source="GCxnZ_K5_v9I7kZ8iRKZ-81" target="GCxnZ_K5_v9I7kZ8iRKZ-77">
          <mxGeometry relative="1" as="geometry" />
        </mxCell>
        <mxCell id="GCxnZ_K5_v9I7kZ8iRKZ-81" value="&lt;div&gt;&lt;font style=&quot;font-size: 11px;&quot;&gt;#include &amp;lt;CRUMBS.h&amp;gt;&lt;/font&gt;&lt;/div&gt;&lt;div&gt;&lt;font style=&quot;font-size: 11px;&quot;&gt;CRUMBS crumbsMaster(true);&lt;/font&gt;&lt;/div&gt;" style="rounded=1;whiteSpace=wrap;html=1;align=left;" vertex="1" parent="1">
          <mxGeometry x="950" y="244" width="160" height="60" as="geometry" />
        </mxCell>
        <mxCell id="GCxnZ_K5_v9I7kZ8iRKZ-101" style="edgeStyle=elbowEdgeStyle;rounded=0;orthogonalLoop=1;jettySize=auto;html=1;" edge="1" parent="1">
          <mxGeometry relative="1" as="geometry">
            <mxPoint x="950" y="443.5" as="targetPoint" />
            <mxPoint x="950" y="533.5" as="sourcePoint" />
            <Array as="points">
              <mxPoint x="910" y="491" />
            </Array>
          </mxGeometry>
        </mxCell>
        <mxCell id="GCxnZ_K5_v9I7kZ8iRKZ-82" value="loop()" style="swimlane;html=1;fontStyle=0;childLayout=stackLayout;horizontal=1;startSize=26;fillColor=#dae8fc;horizontalStack=0;resizeParent=1;resizeLast=0;collapsible=1;marginBottom=0;swimlaneFillColor=#ffffff;align=center;rounded=1;shadow=0;comic=0;labelBackgroundColor=none;strokeWidth=1;fontFamily=Verdana;fontSize=12;strokeColor=#6c8ebf;" vertex="1" parent="1">
          <mxGeometry x="950" y="431" width="160" height="119" as="geometry" />
        </mxCell>
        <mxCell id="GCxnZ_K5_v9I7kZ8iRKZ-83" value="idle();" style="text;html=1;strokeColor=none;fillColor=none;spacingLeft=4;spacingRight=4;whiteSpace=wrap;overflow=hidden;rotatable=0;points=[[0,0.5],[1,0.5]];portConstraint=eastwest;" vertex="1" parent="GCxnZ_K5_v9I7kZ8iRKZ-82">
          <mxGeometry y="26" width="160" height="26" as="geometry" />
        </mxCell>
        <mxCell id="GCxnZ_K5_v9I7kZ8iRKZ-84" value="message_handler();" style="text;html=1;strokeColor=none;fillColor=none;spacingLeft=4;spacingRight=4;whiteSpace=wrap;overflow=hidden;rotatable=0;points=[[0,0.5],[1,0.5]];portConstraint=eastwest;" vertex="1" parent="GCxnZ_K5_v9I7kZ8iRKZ-82">
          <mxGeometry y="52" width="160" height="26" as="geometry" />
        </mxCell>
        <mxCell id="GCxnZ_K5_v9I7kZ8iRKZ-85" value="run();" style="text;html=1;strokeColor=none;fillColor=none;spacingLeft=4;spacingRight=4;whiteSpace=wrap;overflow=hidden;rotatable=0;points=[[0,0.5],[1,0.5]];portConstraint=eastwest;" vertex="1" parent="GCxnZ_K5_v9I7kZ8iRKZ-82">
          <mxGeometry y="78" width="160" height="26" as="geometry" />
        </mxCell>
        <mxCell id="GCxnZ_K5_v9I7kZ8iRKZ-102" value="idle()" style="swimlane;html=1;fontStyle=0;childLayout=stackLayout;horizontal=1;startSize=26;fillColor=#dae8fc;horizontalStack=0;resizeParent=1;resizeLast=0;collapsible=1;marginBottom=0;swimlaneFillColor=#ffffff;align=center;rounded=1;shadow=0;comic=0;labelBackgroundColor=none;strokeWidth=1;fontFamily=Verdana;fontSize=12;strokeColor=#6c8ebf;" vertex="1" parent="1">
          <mxGeometry x="1195" y="341" width="160" height="78" as="geometry" />
        </mxCell>
        <mxCell id="GCxnZ_K5_v9I7kZ8iRKZ-103" value="d" style="text;html=1;strokeColor=none;fillColor=none;spacingLeft=4;spacingRight=4;whiteSpace=wrap;overflow=hidden;rotatable=0;points=[[0,0.5],[1,0.5]];portConstraint=eastwest;" vertex="1" parent="GCxnZ_K5_v9I7kZ8iRKZ-102">
          <mxGeometry y="26" width="160" height="26" as="geometry" />
        </mxCell>
        <mxCell id="GCxnZ_K5_v9I7kZ8iRKZ-104" value="d" style="text;html=1;strokeColor=none;fillColor=none;spacingLeft=4;spacingRight=4;whiteSpace=wrap;overflow=hidden;rotatable=0;points=[[0,0.5],[1,0.5]];portConstraint=eastwest;" vertex="1" parent="GCxnZ_K5_v9I7kZ8iRKZ-102">
          <mxGeometry y="52" width="160" height="26" as="geometry" />
        </mxCell>
        <mxCell id="GCxnZ_K5_v9I7kZ8iRKZ-106" value="message_handler()" style="swimlane;html=1;fontStyle=0;childLayout=stackLayout;horizontal=1;startSize=26;fillColor=#dae8fc;horizontalStack=0;resizeParent=1;resizeLast=0;collapsible=1;marginBottom=0;swimlaneFillColor=#ffffff;align=center;rounded=1;shadow=0;comic=0;labelBackgroundColor=none;strokeWidth=1;fontFamily=Verdana;fontSize=12;strokeColor=#6c8ebf;" vertex="1" parent="1">
          <mxGeometry x="1195" y="436.5" width="160" height="104" as="geometry" />
        </mxCell>
        <mxCell id="GCxnZ_K5_v9I7kZ8iRKZ-107" value="d" style="text;html=1;strokeColor=none;fillColor=none;spacingLeft=4;spacingRight=4;whiteSpace=wrap;overflow=hidden;rotatable=0;points=[[0,0.5],[1,0.5]];portConstraint=eastwest;" vertex="1" parent="GCxnZ_K5_v9I7kZ8iRKZ-106">
          <mxGeometry y="26" width="160" height="26" as="geometry" />
        </mxCell>
        <mxCell id="GCxnZ_K5_v9I7kZ8iRKZ-122" value="d" style="text;html=1;strokeColor=none;fillColor=none;spacingLeft=4;spacingRight=4;whiteSpace=wrap;overflow=hidden;rotatable=0;points=[[0,0.5],[1,0.5]];portConstraint=eastwest;" vertex="1" parent="GCxnZ_K5_v9I7kZ8iRKZ-106">
          <mxGeometry y="52" width="160" height="26" as="geometry" />
        </mxCell>
        <mxCell id="GCxnZ_K5_v9I7kZ8iRKZ-108" value="d" style="text;html=1;strokeColor=none;fillColor=none;spacingLeft=4;spacingRight=4;whiteSpace=wrap;overflow=hidden;rotatable=0;points=[[0,0.5],[1,0.5]];portConstraint=eastwest;" vertex="1" parent="GCxnZ_K5_v9I7kZ8iRKZ-106">
          <mxGeometry y="78" width="160" height="26" as="geometry" />
        </mxCell>
        <mxCell id="GCxnZ_K5_v9I7kZ8iRKZ-110" value="run()" style="swimlane;html=1;fontStyle=0;childLayout=stackLayout;horizontal=1;startSize=26;fillColor=#dae8fc;horizontalStack=0;resizeParent=1;resizeLast=0;collapsible=1;marginBottom=0;swimlaneFillColor=#ffffff;align=center;rounded=1;shadow=0;comic=0;labelBackgroundColor=none;strokeWidth=1;fontFamily=Verdana;fontSize=12;strokeColor=#6c8ebf;" vertex="1" parent="1">
          <mxGeometry x="1195" y="560" width="160" height="80" as="geometry" />
        </mxCell>
        <mxCell id="GCxnZ_K5_v9I7kZ8iRKZ-111" value="d" style="text;html=1;strokeColor=none;fillColor=none;spacingLeft=4;spacingRight=4;whiteSpace=wrap;overflow=hidden;rotatable=0;points=[[0,0.5],[1,0.5]];portConstraint=eastwest;" vertex="1" parent="GCxnZ_K5_v9I7kZ8iRKZ-110">
          <mxGeometry y="26" width="160" height="26" as="geometry" />
        </mxCell>
        <mxCell id="GCxnZ_K5_v9I7kZ8iRKZ-112" value="d" style="text;html=1;strokeColor=none;fillColor=none;spacingLeft=4;spacingRight=4;whiteSpace=wrap;overflow=hidden;rotatable=0;points=[[0,0.5],[1,0.5]];portConstraint=eastwest;" vertex="1" parent="GCxnZ_K5_v9I7kZ8iRKZ-110">
          <mxGeometry y="52" width="160" height="26" as="geometry" />
        </mxCell>
        <mxCell id="GCxnZ_K5_v9I7kZ8iRKZ-116" style="rounded=0;orthogonalLoop=1;jettySize=auto;html=1;entryX=0;entryY=0.5;entryDx=0;entryDy=0;exitX=1;exitY=0.25;exitDx=0;exitDy=0;edgeStyle=elbowEdgeStyle;" edge="1" parent="1" source="GCxnZ_K5_v9I7kZ8iRKZ-82" target="GCxnZ_K5_v9I7kZ8iRKZ-103">
          <mxGeometry relative="1" as="geometry">
            <Array as="points">
              <mxPoint x="1130" y="430" />
            </Array>
          </mxGeometry>
        </mxCell>
        <mxCell id="GCxnZ_K5_v9I7kZ8iRKZ-117" style="rounded=0;orthogonalLoop=1;jettySize=auto;html=1;entryX=1;entryY=0.5;entryDx=0;entryDy=0;exitX=0;exitY=0.5;exitDx=0;exitDy=0;edgeStyle=elbowEdgeStyle;" edge="1" parent="1" source="GCxnZ_K5_v9I7kZ8iRKZ-104" target="GCxnZ_K5_v9I7kZ8iRKZ-83">
          <mxGeometry relative="1" as="geometry">
            <mxPoint x="1150" y="455" as="sourcePoint" />
            <Array as="points">
              <mxPoint x="1150" y="450" />
            </Array>
          </mxGeometry>
        </mxCell>
        <mxCell id="GCxnZ_K5_v9I7kZ8iRKZ-118" style="rounded=0;orthogonalLoop=1;jettySize=auto;html=1;exitX=1;exitY=0.5;exitDx=0;exitDy=0;entryX=0;entryY=0.5;entryDx=0;entryDy=0;edgeStyle=elbowEdgeStyle;" edge="1" parent="1" source="GCxnZ_K5_v9I7kZ8iRKZ-84" target="GCxnZ_K5_v9I7kZ8iRKZ-107">
          <mxGeometry relative="1" as="geometry">
            <Array as="points">
              <mxPoint x="1160" y="490" />
            </Array>
          </mxGeometry>
        </mxCell>
        <mxCell id="GCxnZ_K5_v9I7kZ8iRKZ-119" style="rounded=0;orthogonalLoop=1;jettySize=auto;html=1;entryX=0.987;entryY=0.953;entryDx=0;entryDy=0;entryPerimeter=0;exitX=0;exitY=0.5;exitDx=0;exitDy=0;edgeStyle=elbowEdgeStyle;" edge="1" parent="1" source="GCxnZ_K5_v9I7kZ8iRKZ-108" target="GCxnZ_K5_v9I7kZ8iRKZ-84">
          <mxGeometry relative="1" as="geometry">
            <Array as="points">
              <mxPoint x="1160" y="510" />
            </Array>
          </mxGeometry>
        </mxCell>
        <mxCell id="GCxnZ_K5_v9I7kZ8iRKZ-120" style="rounded=0;orthogonalLoop=1;jettySize=auto;html=1;exitX=1;exitY=0.5;exitDx=0;exitDy=0;entryX=0;entryY=0.5;entryDx=0;entryDy=0;edgeStyle=elbowEdgeStyle;" edge="1" parent="1" source="GCxnZ_K5_v9I7kZ8iRKZ-85" target="GCxnZ_K5_v9I7kZ8iRKZ-110">
          <mxGeometry relative="1" as="geometry">
            <Array as="points">
              <mxPoint x="1150" y="560" />
            </Array>
          </mxGeometry>
        </mxCell>
        <mxCell id="GCxnZ_K5_v9I7kZ8iRKZ-121" style="rounded=0;orthogonalLoop=1;jettySize=auto;html=1;exitX=0;exitY=0.5;exitDx=0;exitDy=0;edgeStyle=elbowEdgeStyle;" edge="1" parent="1" source="GCxnZ_K5_v9I7kZ8iRKZ-112">
          <mxGeometry relative="1" as="geometry">
            <mxPoint x="1110" y="540" as="targetPoint" />
            <Array as="points">
              <mxPoint x="1130" y="580" />
            </Array>
          </mxGeometry>
        </mxCell>
      </root>
    </mxGraphModel>
  </diagram>
</mxfile>
